<?xml version="1.0" encoding="UTF-8" standalone="no"?>
<!DOCTYPE svg PUBLIC "-//W3C//DTD SVG 1.1//EN"
 "http://www.w3.org/Graphics/SVG/1.1/DTD/svg11.dtd">
<!-- Generated by graphviz version 3.0.0 (20220226.1711)
 -->
<!-- Title: dependencies Pages: 1 -->
<svg width="1917pt" height="247pt"
 viewBox="0.00 0.00 1917.00 246.80" xmlns="http://www.w3.org/2000/svg" xmlns:xlink="http://www.w3.org/1999/xlink">
<g id="graph0" class="graph" transform="scale(1 1) rotate(0) translate(4 242.8)">
<title>dependencies</title>
<polygon fill="white" stroke="transparent" points="-4,4 -4,-242.8 1913,-242.8 1913,4 -4,4"/>
<text text-anchor="middle" x="954.5" y="-8.2" font-family="sans-serif" font-size="14.00">dependencies</text>
<g id="clust1" class="cluster">
<title>cluster_AppModule</title>
<polygon fill="none" stroke="black" stroke-dasharray="1,5" points="8,-32.8 8,-230.8 1901,-230.8 1901,-32.8 8,-32.8"/>
</g>
<g id="clust14" class="cluster">
<title>cluster_AppModule_imports</title>
<polygon fill="none" stroke="black" points="1749,-40.8 1749,-92.8 1893,-92.8 1893,-40.8 1749,-40.8"/>
</g>
<g id="clust16" class="cluster">
<title>cluster_AppModule_bootstrap</title>
<polygon fill="none" stroke="black" points="935,-170.8 935,-222.8 1059,-222.8 1059,-170.8 935,-170.8"/>
</g>
<g id="clust2" class="cluster">
<title>cluster_AppModule_declarations</title>
<polygon fill="none" stroke="black" points="16,-40.8 16,-92.8 1741,-92.8 1741,-40.8 16,-40.8"/>
</g>
<!-- AppComponent -->
<g id="node1" class="node">
<title>AppComponent</title>
<polygon fill="#ffffb3" stroke="black" points="1732.94,-84.8 1627.06,-84.8 1627.06,-48.8 1732.94,-48.8 1732.94,-84.8"/>
<text text-anchor="middle" x="1680" y="-62.6" font-family="Times,serif" font-size="14.00">AppComponent</text>
</g>
<!-- AppModule -->
<g id="node12" class="node">
<title>AppModule</title>
<polygon fill="#8dd3c7" stroke="black" points="1038.66,-149.8 1035.66,-153.8 1014.66,-153.8 1011.66,-149.8 955.34,-149.8 955.34,-113.8 1038.66,-113.8 1038.66,-149.8"/>
<text text-anchor="middle" x="997" y="-127.6" font-family="Times,serif" font-size="14.00">AppModule</text>
</g>
<!-- AppComponent&#45;&gt;AppModule -->
<g id="edge1" class="edge">
<title>AppComponent&#45;&gt;AppModule</title>
<path fill="none" stroke="black" d="M1680,-85.08C1680,-106.12 1680,-137.8 1680,-137.8 1680,-137.8 1048.7,-137.8 1048.7,-137.8"/>
<polygon fill="black" stroke="black" points="1048.7,-134.3 1038.7,-137.8 1048.7,-141.3 1048.7,-134.3"/>
</g>
<!-- DropdownDirective -->
<g id="node2" class="node">
<title>DropdownDirective</title>
<polygon fill="#ffffb3" stroke="black" points="1608.97,-84.8 1481.03,-84.8 1481.03,-48.8 1608.97,-48.8 1608.97,-84.8"/>
<text text-anchor="middle" x="1545" y="-62.6" font-family="Times,serif" font-size="14.00">DropdownDirective</text>
</g>
<!-- DropdownDirective&#45;&gt;AppModule -->
<g id="edge2" class="edge">
<title>DropdownDirective&#45;&gt;AppModule</title>
<path fill="none" stroke="black" d="M1545,-84.91C1545,-104.14 1545,-131.8 1545,-131.8 1545,-131.8 1049.09,-131.8 1049.09,-131.8"/>
<polygon fill="black" stroke="black" points="1049.09,-128.3 1039.09,-131.8 1049.09,-135.3 1049.09,-128.3"/>
</g>
<!-- HeaderComponent -->
<g id="node3" class="node">
<title>HeaderComponent</title>
<polygon fill="#ffffb3" stroke="black" points="1462.75,-84.8 1341.25,-84.8 1341.25,-48.8 1462.75,-48.8 1462.75,-84.8"/>
<text text-anchor="middle" x="1402" y="-62.6" font-family="Times,serif" font-size="14.00">HeaderComponent</text>
</g>
<!-- HeaderComponent&#45;&gt;AppModule -->
<g id="edge3" class="edge">
<title>HeaderComponent&#45;&gt;AppModule</title>
<path fill="none" stroke="black" d="M1402,-84.82C1402,-102.17 1402,-125.8 1402,-125.8 1402,-125.8 1048.82,-125.8 1048.82,-125.8"/>
<polygon fill="black" stroke="black" points="1048.82,-122.3 1038.82,-125.8 1048.82,-129.3 1048.82,-122.3"/>
</g>
<!-- RecipeDetailComponent -->
<g id="node4" class="node">
<title>RecipeDetailComponent</title>
<polygon fill="#ffffb3" stroke="black" points="1323.41,-84.8 1168.59,-84.8 1168.59,-48.8 1323.41,-48.8 1323.41,-84.8"/>
<text text-anchor="middle" x="1246" y="-62.6" font-family="Times,serif" font-size="14.00">RecipeDetailComponent</text>
</g>
<!-- RecipeDetailComponent&#45;&gt;AppModule -->
<g id="edge4" class="edge">
<title>RecipeDetailComponent&#45;&gt;AppModule</title>
<path fill="none" stroke="black" d="M1246,-85.04C1246,-100.37 1246,-119.8 1246,-119.8 1246,-119.8 1048.68,-119.8 1048.68,-119.8"/>
<polygon fill="black" stroke="black" points="1048.68,-116.3 1038.68,-119.8 1048.68,-123.3 1048.68,-116.3"/>
</g>
<!-- RecipeEditComponent -->
<g id="node5" class="node">
<title>RecipeEditComponent</title>
<polygon fill="#ffffb3" stroke="black" points="1150.53,-84.8 1007.47,-84.8 1007.47,-48.8 1150.53,-48.8 1150.53,-84.8"/>
<text text-anchor="middle" x="1079" y="-62.6" font-family="Times,serif" font-size="14.00">RecipeEditComponent</text>
</g>
<!-- RecipeEditComponent&#45;&gt;AppModule -->
<g id="edge5" class="edge">
<title>RecipeEditComponent&#45;&gt;AppModule</title>
<path fill="none" stroke="black" d="M1023.03,-84.91C1023.03,-84.91 1023.03,-103.79 1023.03,-103.79"/>
<polygon fill="black" stroke="black" points="1019.53,-103.79 1023.03,-113.79 1026.53,-103.79 1019.53,-103.79"/>
</g>
<!-- RecipeItemComponent -->
<g id="node6" class="node">
<title>RecipeItemComponent</title>
<polygon fill="#ffffb3" stroke="black" points="988.86,-84.8 843.14,-84.8 843.14,-48.8 988.86,-48.8 988.86,-84.8"/>
<text text-anchor="middle" x="916" y="-62.6" font-family="Times,serif" font-size="14.00">RecipeItemComponent</text>
</g>
<!-- RecipeItemComponent&#45;&gt;AppModule -->
<g id="edge6" class="edge">
<title>RecipeItemComponent&#45;&gt;AppModule</title>
<path fill="none" stroke="black" d="M972.05,-84.91C972.05,-84.91 972.05,-103.79 972.05,-103.79"/>
<polygon fill="black" stroke="black" points="968.55,-103.79 972.05,-113.79 975.55,-103.79 968.55,-103.79"/>
</g>
<!-- RecipeListComponent -->
<g id="node7" class="node">
<title>RecipeListComponent</title>
<polygon fill="#ffffb3" stroke="black" points="824.98,-84.8 683.02,-84.8 683.02,-48.8 824.98,-48.8 824.98,-84.8"/>
<text text-anchor="middle" x="754" y="-62.6" font-family="Times,serif" font-size="14.00">RecipeListComponent</text>
</g>
<!-- RecipeListComponent&#45;&gt;AppModule -->
<g id="edge7" class="edge">
<title>RecipeListComponent&#45;&gt;AppModule</title>
<path fill="none" stroke="black" d="M754,-85.04C754,-100.37 754,-119.8 754,-119.8 754,-119.8 945.23,-119.8 945.23,-119.8"/>
<polygon fill="black" stroke="black" points="945.23,-123.3 955.23,-119.8 945.23,-116.3 945.23,-123.3"/>
</g>
<!-- RecipeStartComponent -->
<g id="node8" class="node">
<title>RecipeStartComponent</title>
<polygon fill="#ffffb3" stroke="black" points="665.14,-84.8 518.86,-84.8 518.86,-48.8 665.14,-48.8 665.14,-84.8"/>
<text text-anchor="middle" x="592" y="-62.6" font-family="Times,serif" font-size="14.00">RecipeStartComponent</text>
</g>
<!-- RecipeStartComponent&#45;&gt;AppModule -->
<g id="edge8" class="edge">
<title>RecipeStartComponent&#45;&gt;AppModule</title>
<path fill="none" stroke="black" d="M592,-84.82C592,-102.17 592,-125.8 592,-125.8 592,-125.8 945.18,-125.8 945.18,-125.8"/>
<polygon fill="black" stroke="black" points="945.18,-129.3 955.18,-125.8 945.18,-122.3 945.18,-129.3"/>
</g>
<!-- RecipesComponent -->
<g id="node9" class="node">
<title>RecipesComponent</title>
<polygon fill="#ffffb3" stroke="black" points="500.65,-84.8 375.35,-84.8 375.35,-48.8 500.65,-48.8 500.65,-84.8"/>
<text text-anchor="middle" x="438" y="-62.6" font-family="Times,serif" font-size="14.00">RecipesComponent</text>
</g>
<!-- RecipesComponent&#45;&gt;AppModule -->
<g id="edge9" class="edge">
<title>RecipesComponent&#45;&gt;AppModule</title>
<path fill="none" stroke="black" d="M438,-84.91C438,-104.14 438,-131.8 438,-131.8 438,-131.8 944.98,-131.8 944.98,-131.8"/>
<polygon fill="black" stroke="black" points="944.98,-135.3 954.98,-131.8 944.98,-128.3 944.98,-135.3"/>
</g>
<!-- ShoppingEditComponent -->
<g id="node10" class="node">
<title>ShoppingEditComponent</title>
<polygon fill="#ffffb3" stroke="black" points="357.34,-84.8 198.66,-84.8 198.66,-48.8 357.34,-48.8 357.34,-84.8"/>
<text text-anchor="middle" x="278" y="-62.6" font-family="Times,serif" font-size="14.00">ShoppingEditComponent</text>
</g>
<!-- ShoppingEditComponent&#45;&gt;AppModule -->
<g id="edge10" class="edge">
<title>ShoppingEditComponent&#45;&gt;AppModule</title>
<path fill="none" stroke="black" d="M278,-85.08C278,-106.12 278,-137.8 278,-137.8 278,-137.8 945.24,-137.8 945.24,-137.8"/>
<polygon fill="black" stroke="black" points="945.24,-141.3 955.24,-137.8 945.24,-134.3 945.24,-141.3"/>
</g>
<!-- ShoppingListComponent -->
<g id="node11" class="node">
<title>ShoppingListComponent</title>
<polygon fill="#ffffb3" stroke="black" points="180.29,-84.8 23.71,-84.8 23.71,-48.8 180.29,-48.8 180.29,-84.8"/>
<text text-anchor="middle" x="102" y="-62.6" font-family="Times,serif" font-size="14.00">ShoppingListComponent</text>
</g>
<!-- ShoppingListComponent&#45;&gt;AppModule -->
<g id="edge11" class="edge">
<title>ShoppingListComponent&#45;&gt;AppModule</title>
<path fill="none" stroke="black" d="M102,-85.05C102,-107.82 102,-143.8 102,-143.8 102,-143.8 945.33,-143.8 945.33,-143.8"/>
<polygon fill="black" stroke="black" points="945.33,-147.3 955.33,-143.8 945.33,-140.3 945.33,-147.3"/>
</g>
<!-- AppComponent  -->
<g id="node14" class="node">
<title>AppComponent </title>
<polygon fill="#80b1d3" stroke="black" points="1051.44,-214.8 942.56,-214.8 942.56,-178.8 1051.44,-178.8 1051.44,-214.8"/>
<text text-anchor="middle" x="997" y="-192.6" font-family="Times,serif" font-size="14.00">AppComponent </text>
</g>
<!-- AppModule&#45;&gt;AppComponent  -->
<g id="edge13" class="edge">
<title>AppModule&#45;&gt;AppComponent </title>
<path fill="none" stroke="black" stroke-dasharray="1,5" d="M997,-149.91C997,-149.91 997,-168.79 997,-168.79"/>
<polygon fill="black" stroke="black" points="993.5,-168.79 997,-178.79 1000.5,-168.79 993.5,-168.79"/>
</g>
<!-- AppRoutingModule -->
<g id="node13" class="node">
<title>AppRoutingModule</title>
<polygon fill="#8dd3c7" stroke="black" points="1885.28,-84.8 1882.28,-88.8 1861.28,-88.8 1858.28,-84.8 1756.72,-84.8 1756.72,-48.8 1885.28,-48.8 1885.28,-84.8"/>
<text text-anchor="middle" x="1821" y="-62.6" font-family="Times,serif" font-size="14.00">AppRoutingModule</text>
</g>
<!-- AppRoutingModule&#45;&gt;AppModule -->
<g id="edge12" class="edge">
<title>AppRoutingModule&#45;&gt;AppModule</title>
<path fill="none" stroke="black" d="M1821,-85.05C1821,-107.82 1821,-143.8 1821,-143.8 1821,-143.8 1048.71,-143.8 1048.71,-143.8"/>
<polygon fill="black" stroke="black" points="1048.71,-140.3 1038.71,-143.8 1048.71,-147.3 1048.71,-140.3"/>
</g>
</g>
</svg>
